<svg width="265" height="56" viewBox="0 0 265 56" fill="none" xmlns="http://www.w3.org/2000/svg">
<path d="M134.65 12.2629C134.176 12.2629 133.792 11.8777 133.792 11.4044C133.792 10.9283 134.176 10.5444 134.65 10.5444H148.143C148.62 10.5444 149.002 10.9297 149.002 11.4044C149.002 11.8777 148.62 12.2629 148.143 12.2629H134.65Z" fill="#F0E1D2"/>
<path d="M56.2791 11.988C55.8069 11.988 55.4229 11.6028 55.4229 11.1295C55.4229 10.6534 55.8083 10.2695 56.2791 10.2695H69.7701C70.2437 10.2695 70.6305 10.6534 70.6305 11.1295C70.6305 11.6014 70.2437 11.988 69.7701 11.988H56.2791Z" fill="#F0E1D2"/>
<path d="M235.911 12.2326C235.439 12.2326 235.052 11.8488 235.052 11.3741C235.052 10.8994 235.439 10.5142 235.911 10.5142H249.402C249.878 10.5142 250.264 10.8994 250.264 11.3741C250.264 11.8474 249.878 12.2326 249.402 12.2326H235.911Z" fill="#F0E1D2"/>
<path d="M155.147 19.8388C154.098 18.9458 153.444 17.5892 153.449 16.0069V11.3083C153.449 10.8322 153.835 10.4497 154.308 10.4497C154.785 10.4497 155.167 10.8336 155.167 11.3083V16.0069C155.191 18.1987 156.774 19.426 159.091 19.4769C161.394 19.426 162.98 18.1987 163 16.0069V11.3083C163 10.8322 163.387 10.4497 163.859 10.4497C164.336 10.4497 164.72 10.8336 164.72 11.3083V16.0069C164.728 17.5892 164.074 18.9458 163.024 19.8374C161.976 20.7386 160.579 21.1954 159.091 21.1954C157.594 21.1954 156.194 20.7386 155.147 19.8401" fill="#F0E1D2"/>
<path d="M138.769 32.2477V15.1482H134.651C134.177 15.1495 133.792 14.7671 133.792 14.2896C133.792 13.8149 134.177 13.4297 134.651 13.4297H139.629C139.856 13.4297 140.075 13.5232 140.236 13.6829C140.397 13.8425 140.487 14.0653 140.487 14.2896V32.2477H140.489C140.489 32.7238 140.104 33.1063 139.629 33.1063C139.155 33.1063 138.769 32.7224 138.769 32.2477Z" fill="#F0E1D2"/>
<path d="M142.261 32.2477V14.2896C142.261 14.0653 142.353 13.8425 142.511 13.6829C142.672 13.5232 142.894 13.4297 143.121 13.4297H148.143C148.619 13.4311 149.003 13.8163 149.003 14.2896C149.003 14.7643 148.619 15.1482 148.143 15.1482H143.98V32.2477C143.98 32.7238 143.596 33.1063 143.123 33.1063C142.645 33.1063 142.262 32.7224 142.262 32.2477" fill="#F0E1D2"/>
<path d="M127.292 32.2464V11.487C127.292 11.015 127.675 10.6284 128.148 10.6284C128.625 10.6284 129.01 11.0137 129.01 11.487V32.2477C129.01 32.7224 128.626 33.1077 128.148 33.1077C127.675 33.1077 127.292 32.7238 127.292 32.2477" fill="#F0E1D2"/>
<path d="M130.786 32.2464V11.487C130.786 11.015 131.17 10.6284 131.647 10.6284C132.119 10.6284 132.504 11.0137 132.504 11.487V32.2477C132.504 32.7224 132.119 33.1077 131.647 33.1077C131.17 33.1077 130.786 32.7238 130.786 32.2477" fill="#F0E1D2"/>
<path d="M156.67 32.2478V23.914C153.21 23.0142 150.569 20.3505 150.548 17.0181L150.552 11.2628C150.552 10.7867 150.937 10.4028 151.411 10.4028C151.886 10.4028 152.27 10.7867 152.27 11.2628V17.0181C152.252 19.5043 154.478 21.7773 157.686 22.3827C158.093 22.4584 158.386 22.8147 158.386 23.2275V32.2478C158.386 32.7239 158.004 33.1063 157.532 33.1063C157.055 33.1063 156.671 32.7225 156.671 32.2478" fill="#F0E1D2"/>
<path d="M160.167 32.2478V23.2454C160.167 22.8298 160.468 22.4721 160.879 22.3992C164.128 21.8227 166.405 19.5318 166.386 17.0181V11.2628C166.386 10.7867 166.77 10.4028 167.245 10.4028C167.718 10.4028 168.102 10.7867 168.102 11.2628V17.0181C168.084 20.3904 165.388 23.0665 161.884 23.9402V32.2478C161.884 32.7239 161.5 33.1063 161.026 33.1063C160.55 33.1063 160.166 32.7225 160.166 32.2478" fill="#F0E1D2"/>
<path d="M18.4707 26.1939V11.088C18.4707 10.6134 18.8562 10.2295 19.3297 10.2295C19.806 10.2295 20.1901 10.6134 20.1901 11.088V26.1939C20.1929 27.6592 20.9211 29.0104 22.1904 30.0368C23.4569 31.0577 25.2479 31.7167 27.2495 31.7154C29.247 31.7181 31.0394 31.0577 32.3045 30.0368C33.5737 29.0117 34.2979 27.6606 34.302 26.1939V11.088C34.302 10.6134 34.6847 10.2295 35.1582 10.2295C35.6346 10.2295 36.0228 10.6134 36.0228 11.088V26.1939C35.9842 30.3463 31.9645 33.427 27.2495 33.4352C22.5345 33.427 18.5106 30.3477 18.4721 26.1939" fill="#F0E1D2"/>
<path d="M23.3118 29.0119C22.2614 28.1189 21.6047 26.7623 21.6144 25.1773V11.1295C21.6144 10.6548 21.9984 10.2695 22.4734 10.2695C22.9456 10.2695 23.3338 10.6548 23.3338 11.1295V25.1773C23.3558 27.3732 24.9417 28.5977 27.2475 28.6486C29.5575 28.5977 31.142 27.3732 31.1641 25.1773V11.1295C31.1641 10.6548 31.5495 10.2695 32.0245 10.2695C32.498 10.2695 32.8849 10.6548 32.8849 11.1295V25.1773C32.8904 26.7623 32.2378 28.1175 31.1861 29.0119C30.1385 29.909 28.7371 30.3644 27.2475 30.3671C25.7567 30.3644 24.3621 29.909 23.3131 29.0119" fill="#F0E1D2"/>
<path d="M36.6865 28.6184C36.6865 28.1423 37.072 27.7571 37.5442 27.7571C38.885 27.7722 40.0744 26.7582 41.1592 25.0549C42.2247 23.379 43.0906 21.1735 43.8629 19.3091C44.6352 17.4476 45.5686 15.2599 47.014 13.4699C48.4457 11.6812 50.5079 10.2819 53.2887 10.2696C53.765 10.2654 54.1532 10.6493 54.1574 11.1212C54.1601 11.5973 53.7788 11.9825 53.3052 11.9867C51.1012 12.0156 49.6104 13.02 48.3521 14.55C47.1035 16.0786 46.2101 18.1245 45.4488 19.9654C44.6875 21.8064 43.8065 24.0904 42.6074 25.9781C41.4276 27.8369 39.8252 29.4591 37.5442 29.4742C37.072 29.4742 36.6865 29.089 36.6865 28.6156" fill="#F0E1D2"/>
<path d="M36.6869 31.9742C36.6869 31.4968 37.0724 31.1143 37.5487 31.1143C39.3314 31.1184 40.9875 30.1539 42.4247 28.6638C43.8523 27.182 45.0059 25.2048 45.7342 23.4341C46.483 21.6275 47.287 19.1977 48.3911 17.16C49.4841 15.1567 50.9695 13.3213 53.2988 13.291C53.7723 13.291 54.1591 13.6749 54.1591 14.1509C54.1591 14.6229 53.7737 15.0081 53.2988 15.0081C52.0598 14.9779 50.9213 16.0978 49.904 17.9787C48.8963 19.8237 48.102 22.2013 47.3214 24.0904C46.5216 26.0276 45.2867 28.1561 43.6637 29.8539C42.0448 31.5422 39.9743 32.8286 37.5473 32.8327C37.071 32.8341 36.6855 32.4502 36.6855 31.9756" fill="#F0E1D2"/>
<path d="M60.4008 31.9728V14.8801H56.2791C55.8069 14.8801 55.4229 14.4962 55.4229 14.0229C55.4229 13.5496 55.8083 13.1616 56.2791 13.1616H61.2584C61.4855 13.1616 61.7044 13.2552 61.8669 13.4148C62.0252 13.5771 62.1147 13.7973 62.1147 14.0229V31.9728C62.1147 32.4474 61.7306 32.8313 61.2584 32.8313C60.7821 32.8313 60.4008 32.4461 60.4008 31.9728Z" fill="#F0E1D2"/>
<path d="M65.6081 31.9727C65.6081 32.4473 65.2212 32.8312 64.7504 32.8312C64.2741 32.8312 63.8887 32.446 63.8887 31.9727" fill="#F0E1D2"/>
<path d="M63.8887 31.9728V14.0229C63.8887 13.7973 63.9795 13.5744 64.1406 13.4148C64.3003 13.2552 64.5205 13.1616 64.7504 13.1616H69.7724C70.2432 13.163 70.63 13.5496 70.63 14.0229C70.63 14.4962 70.2432 14.8801 69.7724 14.8801H65.6081V31.9728" fill="#F0E1D2"/>
<path d="M71.9746 31.8889V11.1295C71.9746 10.6534 72.3587 10.2695 72.8322 10.2695C73.3072 10.2695 73.694 10.6534 73.694 11.1295V31.8875C73.694 32.3622 73.3072 32.746 72.8322 32.746C72.3587 32.746 71.9746 32.3622 71.9746 31.8875" fill="#F0E1D2"/>
<path d="M75.4707 31.8889V11.1295C75.4707 10.6534 75.8548 10.2695 76.3311 10.2695C76.8033 10.2695 77.1874 10.6534 77.1874 11.1295V31.8875C77.1874 32.3622 76.8033 32.746 76.3311 32.746C75.8548 32.746 75.4707 32.3622 75.4707 31.8875" fill="#F0E1D2"/>
<path d="M95.9012 31.9135V16.8035C95.9012 15.3395 95.1689 13.9884 93.8996 12.9606C92.6331 11.9397 90.8407 11.2793 88.8446 11.282C86.843 11.2793 85.0492 11.9397 83.7841 12.9606C82.5149 13.9884 81.7825 15.3395 81.7825 16.8035V31.9135C81.7825 32.3868 81.3984 32.7734 80.9235 32.7734C80.4499 32.7734 80.0645 32.3882 80.0645 31.9135V16.8035C80.1016 12.6579 84.1255 9.56907 88.8432 9.56494C93.5596 9.57044 97.5794 12.6579 97.6179 16.8035V31.9135C97.6179 32.3868 97.2297 32.7734 96.7616 32.7734C96.2853 32.7734 95.9012 32.3882 95.9012 31.9135Z" fill="#F0E1D2"/>
<path d="M92.7603 31.8708V17.8216C92.7355 15.6354 91.1483 14.4039 88.8424 14.3572C86.5338 14.4067 84.9466 15.634 84.9245 17.8216V31.8708C84.9245 32.3455 84.5404 32.7321 84.0641 32.7321C83.5892 32.7321 83.2051 32.3469 83.2051 31.8708V17.8216C83.1996 16.2407 83.8549 14.8855 84.9025 13.9939C85.9529 13.0955 87.3488 12.6387 88.8424 12.6387C90.3333 12.6387 91.7334 13.0968 92.7796 13.9939C93.8286 14.8855 94.4852 16.2407 94.4784 17.8216V31.8708C94.4784 32.3455 94.0915 32.7321 93.618 32.7321C93.143 32.7321 92.7617 32.3469 92.7617 31.8708" fill="#F0E1D2"/>
<path d="M119.163 33.0417C112.986 33.0403 107.98 28.0486 107.98 21.8901C107.98 15.7316 112.986 10.7427 119.163 10.7427H123.996V10.7454C124.47 10.7454 124.857 11.1293 124.857 11.6012C124.857 12.0745 124.47 12.4598 123.996 12.4598H119.163C113.932 12.4708 109.705 16.6824 109.697 21.8887C109.705 27.0951 113.93 31.3108 119.163 31.3204H123.996C124.47 31.3204 124.857 31.7057 124.857 32.1776C124.857 32.6537 124.47 33.0389 123.996 33.0389H119.163" fill="#F0E1D2"/>
<path d="M113.211 27.6318C111.847 26.1321 111.128 24.0916 111.128 21.8916C111.128 19.686 111.847 17.6497 113.211 16.1459C114.571 14.6448 116.589 13.7216 118.991 13.7271H123.999V13.7298C124.472 13.7298 124.857 14.1123 124.857 14.5856C124.857 15.0603 124.47 15.4456 123.999 15.4456H118.991C115.087 15.48 112.901 18.218 112.847 21.893C112.901 25.5638 115.087 28.3005 118.991 28.3335H123.999C124.472 28.3335 124.857 28.7174 124.857 29.1907C124.857 29.6667 124.47 30.052 123.999 30.052H118.976C116.578 30.052 114.568 29.1301 113.212 27.6332" fill="#F0E1D2"/>
<path d="M12.146 31.9756C12.146 31.9756 11.7578 30.0713 11.2732 27.6429H5.75981C5.27523 30.0727 4.89115 31.9728 4.89115 31.9756C4.79754 32.4392 4.34325 32.7406 3.87932 32.6456C3.41402 32.5534 3.11392 32.0994 3.20753 31.633C3.20753 31.633 3.66595 29.3614 4.21385 26.6165C4.29231 26.2147 4.64611 25.9258 5.05497 25.9258H11.9767C12.3883 25.9258 12.7393 26.2147 12.8206 26.6165C13.3643 29.3586 13.8255 31.6261 13.831 31.6316C13.9246 32.0966 13.6231 32.5507 13.1606 32.6442C13.1041 32.6566 13.0436 32.6621 12.9858 32.6621C12.5879 32.6621 12.2286 32.3814 12.146 31.9756Z" fill="#F0E1D2"/>
<path d="M0.69149 32.6443C0.226188 32.5535 -0.0766714 32.1022 0.015563 31.6372C0.015563 31.6372 3.16392 15.7346 3.50808 14.0629C3.99266 11.9042 6.15122 10.304 8.51902 10.271C10.891 10.304 13.0454 11.9042 13.5313 14.0629C13.8755 15.7333 17.0225 31.633 17.0225 31.6372H17.0252C17.1175 32.1022 16.8119 32.5549 16.3507 32.6443C15.884 32.7365 15.4311 32.4352 15.3389 31.9701C15.3334 31.9522 12.1877 16.058 11.8463 14.4083C11.6495 13.2402 10.0691 11.9578 8.51765 11.9881C6.96894 11.9565 5.38305 13.2388 5.19033 14.4083C4.8503 16.0566 1.70469 31.9522 1.69918 31.9701C1.61934 32.3788 1.26142 32.6622 0.860816 32.6622C0.804374 32.6622 0.745178 32.6567 0.690113 32.6443" fill="#F0E1D2"/>
<path d="M10.2158 22.3525C9.70779 19.8401 9.29618 17.757 9.24662 17.4888C9.19706 17.2163 9.08969 16.699 8.92174 16.2436C8.80059 15.8748 8.60373 15.5955 8.51701 15.5006C8.51012 15.5075 8.50049 15.5171 8.49223 15.5267C8.4055 15.6148 8.28298 15.8143 8.18386 16.0565C7.97737 16.5421 7.84246 17.1792 7.78877 17.4819C7.74059 17.7681 7.32484 19.8401 6.81962 22.3525H10.2158ZM5.77062 24.071C5.51319 24.071 5.26953 23.9568 5.10709 23.7532C4.94189 23.5564 4.87719 23.2964 4.92813 23.0405C5.51732 20.1029 6.05421 17.431 6.10102 17.1819C6.22216 16.6206 6.41489 15.3066 7.2271 14.3641C7.50518 14.0532 7.96222 13.7546 8.52114 13.7573C9.08005 13.7546 9.53296 14.0532 9.81242 14.3655C10.1001 14.6819 10.2874 15.0355 10.4333 15.3891C10.7279 16.0936 10.8697 16.8159 10.9399 17.1778C10.9894 17.4461 11.5098 20.0988 12.1073 23.0418C12.1568 23.295 12.0935 23.5564 11.9297 23.7545C11.7659 23.9554 11.5249 24.0724 11.2648 24.0724H5.772" fill="#F0E1D2"/>
<path d="M187.175 33.0224C184.284 33.0142 182.028 32.8312 180.315 31.7222C178.585 30.583 177.81 28.5329 177.826 25.5871V11.293C177.826 10.8156 178.212 10.4331 178.687 10.4331C179.159 10.4331 179.547 10.817 179.547 11.293V25.5871C179.564 28.321 180.179 29.5593 181.268 30.2913C182.376 31.0494 184.36 31.3163 187.175 31.3053H189.063C189.536 31.3053 189.92 31.6906 189.92 32.1639C189.92 32.6386 189.536 33.0224 189.063 33.0224H187.175Z" fill="#F0E1D2"/>
<path d="M187.001 29.6983C185.328 29.6928 184.14 29.6227 183.183 29.331C182.232 29.064 181.472 28.3706 181.212 27.4873C181.022 26.9094 180.979 26.2944 180.977 25.5886V11.3454C180.977 10.8707 181.361 10.4868 181.836 10.4868C182.312 10.4868 182.696 10.8707 182.696 11.3454V25.5886C182.696 26.2105 182.75 26.6659 182.843 26.9479C182.942 27.2327 183.033 27.3469 183.242 27.49C183.651 27.7872 184.845 27.9964 187.001 27.9799H189.055C189.528 27.9799 189.912 28.3637 189.912 28.8398C189.912 29.3145 189.527 29.6997 189.055 29.6997H187.001" fill="#F0E1D2"/>
<path d="M246.852 28.8977C246.852 28.423 247.234 28.0392 247.708 28.0392C249.043 28.0557 250.231 27.0389 251.315 25.3383C252.386 23.6638 253.249 21.461 254.014 19.5981C254.786 17.7351 255.721 15.5461 257.171 13.7574C258.604 11.9702 260.666 10.5709 263.448 10.5571C263.919 10.5558 264.31 10.9369 264.313 11.4102C264.317 11.8849 263.936 12.2715 263.461 12.2756C261.261 12.3031 259.766 13.3089 258.506 14.8389C257.26 16.3689 256.361 18.4148 255.601 20.2544C254.842 22.0953 253.963 24.3752 252.766 26.2601C251.586 28.119 249.982 29.7411 247.708 29.7576C247.234 29.7576 246.852 29.3724 246.852 28.8977Z" fill="#F0E1D2"/>
<path d="M246.85 32.2643C246.85 31.7883 247.235 31.4044 247.709 31.4044C249.49 31.4085 251.147 30.444 252.583 28.9526C254.014 27.468 255.164 25.495 255.895 23.7256C256.643 21.919 257.448 19.4878 258.552 17.4488C259.644 15.4482 261.125 13.6114 263.456 13.5825C263.929 13.5825 264.315 13.965 264.315 14.4397C264.315 14.913 263.929 15.2983 263.456 15.2983C262.218 15.268 261.083 16.388 260.064 18.2688C259.059 20.1111 258.263 22.49 257.485 24.3846C256.682 26.315 255.451 28.4449 253.826 30.1399C252.206 31.8282 250.138 33.1187 247.71 33.1215C247.236 33.1215 246.851 32.7376 246.851 32.2643" fill="#F0E1D2"/>
<path d="M240.037 32.2219V15.1306H235.913C235.438 15.1306 235.05 14.7453 235.05 14.272C235.05 13.7946 235.437 13.4121 235.913 13.4121H240.9C241.125 13.4121 241.347 13.5043 241.505 13.6639C241.666 13.8235 241.757 14.0436 241.757 14.272V32.2219H241.76C241.76 32.6952 241.374 33.0818 240.9 33.0818C240.426 33.0818 240.037 32.6952 240.037 32.2219Z" fill="#F0E1D2"/>
<path d="M243.526 32.2218V14.2706C243.526 14.0408 243.614 13.822 243.777 13.6624C243.935 13.5015 244.157 13.4106 244.384 13.4106H249.4C249.877 13.4106 250.262 13.7973 250.262 14.2706C250.262 14.7425 249.877 15.1291 249.4 15.1291H245.244V32.2204C245.244 32.6937 244.862 33.0803 244.384 33.0803C243.909 33.0803 243.526 32.6937 243.526 32.2204" fill="#F0E1D2"/>
<path d="M228.385 32.1733V11.4098C228.385 10.9351 228.77 10.5513 229.245 10.5513C229.719 10.5513 230.103 10.9351 230.103 11.4098V32.1733C230.103 32.648 229.719 33.0333 229.245 33.0333C228.772 33.0333 228.385 32.6494 228.385 32.1733Z" fill="#F0E1D2"/>
<path d="M231.876 32.1733V11.4098C231.876 10.9351 232.263 10.5513 232.736 10.5513C233.21 10.5513 233.6 10.9351 233.6 11.4098V32.1733C233.6 32.648 233.211 33.0333 232.736 33.0333C232.263 33.0333 231.876 32.6494 231.876 32.1733Z" fill="#F0E1D2"/>
<path d="M191.508 32.1733V11.4098C191.508 10.9351 191.893 10.5513 192.368 10.5513C192.843 10.5513 193.227 10.9351 193.227 11.4098V32.1733C193.227 32.648 192.843 33.0333 192.368 33.0333C191.895 33.0333 191.508 32.6494 191.508 32.1733Z" fill="#F0E1D2"/>
<path d="M194.997 32.1733V11.4098C194.997 10.9351 195.381 10.5513 195.855 10.5513C196.328 10.5513 196.716 10.9351 196.716 11.4098V32.1733C196.716 32.648 196.33 33.0333 195.855 33.0333C195.38 33.0333 194.997 32.6494 194.997 32.1733Z" fill="#F0E1D2"/>
<path d="M210.03 32.1829V18.3552C209.982 16.041 208.77 14.9926 207.238 14.9582C205.706 14.9898 204.482 16.0465 204.437 18.3552V32.1829C204.437 32.6576 204.05 33.0415 203.576 33.0415C203.101 33.0415 202.719 32.6576 202.719 32.1829V18.3552C202.715 16.85 203.188 15.5608 204.014 14.6513C204.836 13.7419 206.002 13.2356 207.238 13.2383C208.474 13.2342 209.642 13.7419 210.46 14.6541C211.284 15.5622 211.751 16.8486 211.75 18.3539V32.1815H211.751C211.751 32.6562 211.365 33.0401 210.89 33.0401C210.416 33.0401 210.031 32.6562 210.031 32.1815" fill="#F0E1D2"/>
<path d="M223.895 32.2118V17.1032C223.894 14.1093 221.239 11.5845 217.847 11.5804C215.985 11.5804 214.34 12.3454 213.232 13.5355C213.069 13.7089 212.842 13.8107 212.601 13.8107C212.361 13.8107 212.134 13.7116 211.972 13.5355C210.865 12.3454 209.217 11.5804 207.357 11.5804C203.967 11.5845 201.31 14.1079 201.303 17.1032V32.2118C201.303 32.6851 200.919 33.0717 200.444 33.0717C199.969 33.0717 199.585 32.6851 199.585 32.2118V17.1032C199.597 13.0512 203.117 9.87016 207.357 9.86328C209.37 9.86328 211.212 10.5774 212.602 11.7634C213.993 10.5774 215.833 9.86328 217.847 9.86328C222.087 9.87016 225.605 13.0498 225.616 17.1032V32.2118C225.616 32.6851 225.232 33.0717 224.757 33.0717C224.283 33.0717 223.895 32.6851 223.895 32.2118Z" fill="#F0E1D2"/>
<path d="M220.752 32.1829V18.3552C220.706 16.041 219.492 14.9926 217.96 14.9582C216.432 14.9898 215.211 16.0465 215.163 18.3552V32.1829C215.163 32.6576 214.779 33.0415 214.305 33.0415C213.826 33.0415 213.443 32.6576 213.443 32.1829V18.3552C213.441 16.85 213.913 15.5622 214.737 14.6513C215.557 13.7419 216.723 13.2356 217.96 13.2383C219.198 13.2342 220.365 13.7419 221.183 14.6513C222.009 15.5622 222.478 16.85 222.473 18.3552L222.475 32.1829C222.475 32.6576 222.093 33.0415 221.616 33.0415C221.142 33.0415 220.753 32.6576 220.753 32.1829" fill="#F0E1D2"/>
<path d="M260.347 31.5655C260.347 32.2879 260.928 32.8148 261.622 32.8176C262.307 32.8176 262.892 32.2892 262.892 31.5655C262.892 30.8445 262.307 30.3148 261.622 30.3121C260.928 30.3135 260.347 30.8445 260.347 31.5655ZM260.23 31.9948C260.215 31.9907 260.202 31.981 260.19 31.9728C260.173 31.9549 260.168 31.9315 260.168 31.9081V31.7334V31.5641C260.168 30.74 260.837 30.1318 261.623 30.1318C262.401 30.1318 263.078 30.74 263.078 31.5641C263.077 32.3924 262.401 32.9978 261.623 32.9992C260.983 32.9992 260.419 32.5933 260.23 31.9934" fill="#F0E1D2"/>
<path d="M261.345 32.3414H261.108V30.7949H261.699C262.065 30.7949 262.25 30.9256 262.25 31.2325C262.25 31.5104 262.069 31.6315 261.845 31.6604L262.287 32.3414H262.027L261.611 31.6686H261.345V32.3414ZM261.327 31.0109V31.3921C261.369 31.4017 261.59 31.3921 261.638 31.3921C261.981 31.3921 262.027 31.3205 262.027 31.2118C262.027 31.1031 261.981 31.0068 261.64 31.0068L261.327 31.0109Z" fill="#F0E1D2"/>
<path d="M74.4331 0.0756836H75.7671L76.8271 4.40285H75.7299L75.5675 3.57319H74.5639L74.3959 4.40285H73.3359L74.4331 0.0756836ZM74.7318 2.74215H75.4105L75.0925 1.06907H75.0677L74.7305 2.74215H74.7318Z" fill="#F0E1D2"/>
<path d="M77.6758 0.0756836H78.7234V3.01871C78.7234 3.48376 78.9547 3.59796 79.2217 3.59796C79.4888 3.59796 79.7201 3.48513 79.7201 3.02559V0.0756836H80.7677V2.99394C80.7677 4.23362 80.0257 4.47852 79.2217 4.47852C78.4178 4.47852 77.6758 4.23362 77.6758 2.98156V0.0756836Z" fill="#F0E1D2"/>
<path d="M82.7854 3.17004C82.7854 3.53465 82.985 3.67362 83.2465 3.67362C83.5081 3.67362 83.7077 3.54841 83.7077 3.22095C83.7077 2.49173 81.8382 2.84396 81.8382 1.32085C81.8382 0.540724 82.3861 0 83.2837 0C84.1813 0 84.6796 0.403135 84.6796 1.20803H83.6568C83.6568 0.90671 83.4819 0.804894 83.2823 0.804894C83.0827 0.804894 82.9079 0.917717 82.9079 1.22041C82.9079 2.01292 84.7774 1.63593 84.7774 3.09437C84.7774 3.93779 84.2047 4.47851 83.2438 4.47851C82.2829 4.47851 81.7598 4.04511 81.7598 3.17004H82.7812H82.7854Z" fill="#F0E1D2"/>
<path d="M85.5771 0.0756836H88.6691V0.956252H87.6476V4.40285H86.6V0.956252H85.5785V0.0756836H85.5771Z" fill="#F0E1D2"/>
<path d="M89.6152 0.0756836H90.6629V4.40285H89.6152V0.0756836Z" fill="#F0E1D2"/>
<path d="M91.833 0.0756836H92.6301L93.9516 2.18905H93.9764L93.9516 0.0756836H94.9993V4.40285H94.2022L92.8806 2.28949H92.8558L92.8806 4.40285H91.833V0.0756836Z" fill="#F0E1D2"/>
<path d="M97.917 0.0756836H99.189C100.261 0.0756836 100.859 0.62879 100.859 1.56027C100.859 2.49174 100.26 3.09438 99.189 3.09438H98.9646V4.40285H97.917V0.0756836ZM98.9646 0.905344V2.26334H99.1394C99.5882 2.26334 99.8126 2.03632 99.8126 1.58366C99.8126 1.13099 99.5882 0.903968 99.1394 0.903968H98.9646V0.905344Z" fill="#F0E1D2"/>
<path d="M102.454 0.0756836H103.788L104.848 4.40285H103.75L103.588 3.57319H102.584L102.416 4.40285H101.356L102.454 0.0756836ZM102.752 2.74215H103.431L103.113 1.06907H103.088L102.751 2.74215H102.752Z" fill="#F0E1D2"/>
<path d="M105.769 0.0756836H107.041C108.138 0.0756836 108.711 0.52835 108.711 1.45983C108.711 2.04458 108.455 2.48486 107.969 2.71188L108.859 4.40423H107.738L107.027 2.89488H106.815V4.40423H105.768V0.0756836H105.769ZM106.817 0.905344V2.08723H107.041C107.465 2.08723 107.665 1.88635 107.665 1.47083C107.665 1.08146 107.465 0.905344 107.041 0.905344H106.817Z" fill="#F0E1D2"/>
<path d="M109.883 0.0756836H110.93V1.67997L112.003 0.0756836H113.125L111.84 1.89323L113.15 4.40285H112.003L111.192 2.82471L110.93 3.1962V4.40423H109.883V0.0756836Z" fill="#F0E1D2"/>
<path d="M114.844 3.17004C114.844 3.53465 115.044 3.67362 115.305 3.67362C115.567 3.67362 115.766 3.54841 115.766 3.22095C115.766 2.49173 113.897 2.84396 113.897 1.32085C113.897 0.540724 114.445 0 115.342 0C116.24 0 116.738 0.403135 116.738 1.20803H115.715C115.715 0.90671 115.541 0.804894 115.341 0.804894C115.141 0.804894 114.966 0.917717 114.966 1.22041C114.966 2.01292 116.836 1.63593 116.836 3.09437C116.836 3.93779 116.263 4.47851 115.302 4.47851C114.341 4.47851 113.818 4.04511 113.818 3.17004H114.84H114.844Z" fill="#F0E1D2"/>
<path d="M119.605 0.0756836H122.148V0.956252H120.651V2.08861H121.897V2.91827H120.651V4.40285H119.604V0.0756836H119.605Z" fill="#F0E1D2"/>
<path d="M124.641 0C125.689 0 126.286 0.773249 126.286 2.23857C126.286 3.70389 125.687 4.47714 124.641 4.47714C123.595 4.47714 122.996 3.70389 122.996 2.23857C122.996 0.773249 123.595 0 124.641 0ZM124.641 3.57318C125.009 3.57318 125.24 3.18931 125.24 2.23994C125.24 1.29058 125.01 0.90671 124.641 0.90671C124.272 0.90671 124.042 1.29058 124.042 2.23994C124.042 3.18931 124.274 3.57318 124.641 3.57318Z" fill="#F0E1D2"/>
<path d="M127.358 0.0756836H128.406V3.01871C128.406 3.48376 128.636 3.59796 128.904 3.59796C129.173 3.59796 129.403 3.48513 129.403 3.02559V0.0756836H130.45V2.99394C130.45 4.23362 129.708 4.47852 128.904 4.47852C128.1 4.47852 127.358 4.23362 127.358 2.98156V0.0756836Z" fill="#F0E1D2"/>
<path d="M131.595 0.0756836H132.392L133.713 2.18905H133.738L133.713 0.0756836H134.761V4.40285H133.964L132.642 2.28949H132.618L132.642 4.40285H131.595V0.0756836Z" fill="#F0E1D2"/>
<path d="M135.933 0.0756836H137.229C138.514 0.0756836 139.099 0.981018 139.099 2.23995C139.099 3.49889 138.512 4.40423 137.229 4.40423H135.933V0.0756836ZM136.98 0.956252V3.52228H137.205C137.809 3.52228 138.028 2.92515 138.028 2.23858C138.028 1.50936 137.81 0.954876 137.205 0.954876H136.98V0.956252Z" fill="#F0E1D2"/>
<path d="M140.919 0.0756836H142.253L143.313 4.40285H142.216L142.054 3.57319H141.05L140.882 4.40285H139.822L140.919 0.0756836ZM141.218 2.74215H141.897L141.579 1.06907H141.554L141.217 2.74215H141.218Z" fill="#F0E1D2"/>
<path d="M143.735 0.0756836H146.827V0.956252H145.806V4.40285H144.758V0.956252H143.737V0.0756836H143.735Z" fill="#F0E1D2"/>
<path d="M147.774 0.0756836H148.822V4.40285H147.774V0.0756836Z" fill="#F0E1D2"/>
<path d="M151.539 0C152.586 0 153.184 0.773249 153.184 2.23857C153.184 3.70389 152.585 4.47714 151.539 4.47714C150.492 4.47714 149.894 3.70389 149.894 2.23857C149.894 0.773249 150.492 0 151.539 0ZM151.539 3.57318C151.906 3.57318 152.137 3.18931 152.137 2.23994C152.137 1.29058 151.908 0.90671 151.539 0.90671C151.17 0.90671 150.94 1.29058 150.94 2.23994C150.94 3.18931 151.171 3.57318 151.539 3.57318Z" fill="#F0E1D2"/>
<path d="M154.256 0.0756836H155.053L156.374 2.18905H156.399L156.374 0.0756836H157.422V4.40285H156.625L155.303 2.28949H155.279L155.303 4.40285H154.256V0.0756836Z" fill="#F0E1D2"/>
<path d="M160.339 0.0756836H161.611C162.683 0.0756836 163.281 0.62879 163.281 1.56027C163.281 2.49174 162.682 3.09438 161.611 3.09438H161.386V4.40285H160.339V0.0756836ZM161.386 0.905344V2.26334H161.561C162.01 2.26334 162.234 2.03632 162.234 1.58366C162.234 1.13099 162.01 0.903968 161.561 0.903968H161.386V0.905344Z" fill="#F0E1D2"/>
<path d="M164.302 0.0756836H165.574C166.671 0.0756836 167.244 0.52835 167.244 1.45983C167.244 2.04458 166.988 2.48486 166.502 2.71188L167.393 4.40423H166.271L165.56 2.89488H165.348V4.40423H164.301V0.0756836H164.302ZM165.35 0.905344V2.08723H165.574C165.998 2.08723 166.198 1.88635 166.198 1.47083C166.198 1.08146 165.998 0.905344 165.574 0.905344H165.35Z" fill="#F0E1D2"/>
<path d="M168.44 0.0756836H171.084V0.956252H169.488V1.78591H170.834V2.59081H169.488V3.52228H171.158V4.40285H168.44V0.0756836Z" fill="#F0E1D2"/>
<path d="M173.128 3.17004C173.128 3.53465 173.328 3.67362 173.589 3.67362C173.851 3.67362 174.05 3.54841 174.05 3.22095C174.05 2.49173 172.181 2.84396 172.181 1.32085C172.181 0.540724 172.729 0 173.626 0C174.524 0 175.022 0.403135 175.022 1.20803H174C174 0.90671 173.825 0.804894 173.625 0.804894C173.425 0.804894 173.251 0.917717 173.251 1.22041C173.251 2.01292 175.12 1.63593 175.12 3.09437C175.12 3.93779 174.547 4.47851 173.587 4.47851C172.626 4.47851 172.103 4.04511 172.103 3.17004H173.124H173.128Z" fill="#F0E1D2"/>
<path d="M176.144 0.0756836H178.787V0.956252H177.191V1.78591H178.538V2.59081H177.191V3.52228H178.861V4.40285H176.144V0.0756836Z" fill="#F0E1D2"/>
<path d="M179.957 0.0756836H180.754L182.076 2.18905H182.1L182.076 0.0756836H183.123V4.40285H182.326L181.005 2.28949H180.98L181.005 4.40285H179.957V0.0756836Z" fill="#F0E1D2"/>
<path d="M184.07 0.0756836H187.162V0.956252H186.141V4.40285H185.093V0.956252H184.072V0.0756836H184.07Z" fill="#F0E1D2"/>
<path d="M188.983 3.17004C188.983 3.53465 189.182 3.67362 189.444 3.67362C189.705 3.67362 189.905 3.54841 189.905 3.22095C189.905 2.49173 188.036 2.84396 188.036 1.32085C188.036 0.540724 188.583 0 189.481 0C190.379 0 190.877 0.403135 190.877 1.20803H189.854C189.854 0.90671 189.679 0.804894 189.48 0.804894C189.28 0.804894 189.105 0.917717 189.105 1.22041C189.105 2.01292 190.975 1.63593 190.975 3.09437C190.975 3.93779 190.402 4.47851 189.441 4.47851C188.48 4.47851 187.957 4.04511 187.957 3.17004H188.978H188.983Z" fill="#F0E1D2"/>
<path d="M77.9772 49.8032L78.0983 47.0032L78.7206 39.0781H84.0124V55.8007H80.4675L80.4854 50.7883L80.6836 44.7908H80.4675L79.464 55.8007H76.222L75.2446 44.7729H75.0367L75.2446 50.7704V55.8007H71.708V39.0781H76.9998L77.622 47.0032L77.7597 49.8032H77.9758H77.9772Z" fill="#F0E1D2"/>
<path d="M94.1908 39.0781V52.3183C94.1908 54.7467 92.6339 56.0002 89.8668 56.0002C87.0998 56.0002 85.6557 54.7811 85.6475 52.3362V39.0795H89.374V52.3197C89.374 52.7778 89.5475 53.0104 89.9013 53.0021C90.2647 53.0021 90.4464 52.7778 90.4464 52.3197V39.0795H94.1908V39.0781Z" fill="#F0E1D2"/>
<path d="M104.224 44.7385H100.558V42.4738C100.558 42.05 100.368 41.834 99.9961 41.834C99.6244 41.834 99.4509 42.0321 99.4426 42.4215V44.5211C99.4426 44.9105 99.6409 45.1953 100.03 45.359L101.751 45.7828C102.642 46.0167 103.308 46.3882 103.767 46.8973C104.217 47.4077 104.441 48.1672 104.441 49.1964V51.9963C104.441 53.258 104.061 54.2431 103.292 54.9435C102.522 55.6438 101.45 55.9974 100.066 55.9974C97.2304 55.9974 95.7602 54.7962 95.7602 52.5921V49.6188H99.4784V52.3664C99.4784 52.7462 99.6863 53.0145 100.066 53.0145C100.404 53.0145 100.638 52.7723 100.638 52.4187V49.8004C100.638 49.3766 100.395 49.0739 99.9107 48.9102L98.5451 48.5731C97.5415 48.375 96.816 47.9856 96.3576 47.4242C95.8992 46.8629 95.6748 46.0332 95.6748 44.9531V42.6623C95.6748 41.5038 96.0465 40.5888 96.7899 39.9146C97.5333 39.2487 98.6139 38.9116 100.032 38.9116C101.363 38.9116 102.393 39.2061 103.128 39.7936C103.863 40.3893 104.226 41.2107 104.226 42.2564V44.7371L104.224 44.7385Z" fill="#F0E1D2"/>
<path d="M105.887 39.0781H109.605V55.8007H105.887V39.0781Z" fill="#F0E1D2"/>
<path d="M119.725 47.7987V51.9814C119.725 54.652 118.315 55.9824 115.497 55.9742C112.583 55.9742 111.122 54.4277 111.122 51.3251V43.5554C111.122 40.461 112.584 38.9146 115.497 38.9146C118.41 38.9146 119.725 40.124 119.725 42.9335V46.6663H116.041V42.5964C116.041 42.1217 115.859 41.8878 115.496 41.8878C115.132 41.8878 114.95 42.1217 114.95 42.5964V52.2758C114.95 52.7505 115.14 52.9844 115.512 52.9844C115.884 52.9844 116.039 52.7505 116.039 52.2758V47.7987H119.723H119.725Z" fill="#F0E1D2"/>
<path d="M132.277 42.189L129.302 42.2069V45.7842L132.061 45.7663V48.7396L129.302 48.7575V55.8007H125.584V39.0781H132.277V42.189Z" fill="#F0E1D2"/>
<path d="M137.493 52.6719H140.761V55.8007H133.774V39.0781H140.71V42.2069H137.493V45.7677H140.536V48.7231H137.493V52.6733V52.6719Z" fill="#F0E1D2"/>
<path d="M150.96 44.7385H147.294V42.4738C147.294 42.05 147.104 41.834 146.732 41.834C146.361 41.834 146.187 42.0321 146.179 42.4215V44.5211C146.179 44.9105 146.377 45.1953 146.767 45.359L148.488 45.7828C149.378 46.0167 150.045 46.3882 150.503 46.8973C150.953 47.4077 151.178 48.1672 151.178 49.1964V51.9963C151.178 53.258 150.798 54.2431 150.028 54.9435C149.258 55.6438 148.186 55.9974 146.803 55.9974C143.967 55.9974 142.496 54.7962 142.496 52.5921V49.6188H146.215V52.3664C146.215 52.7462 146.423 53.0145 146.803 53.0145C147.14 53.0145 147.374 52.7723 147.374 52.4187V49.8004C147.374 49.3766 147.132 49.0739 146.647 48.9102L145.281 48.5731C144.278 48.375 143.552 47.9856 143.094 47.4242C142.636 46.8629 142.411 46.0332 142.411 44.9531V42.6623C142.411 41.5038 142.783 40.5888 143.526 39.9146C144.27 39.2487 145.35 38.9116 146.768 38.9116C148.099 38.9116 149.129 39.2061 149.864 39.7936C150.599 40.3893 150.963 41.2107 150.963 42.2564V44.7371L150.96 44.7385Z" fill="#F0E1D2"/>
<path d="M159.863 39.0781V42.189H157.789V55.8007H154.07V42.2069H151.943V39.0781H159.865H159.863Z" fill="#F0E1D2"/>
<path d="M161.024 39.0781H164.743V55.8007H161.024V39.0781Z" fill="#F0E1D2"/>
<path d="M171.483 39.0781H175.279L173.54 55.8007H167.816L166.087 39.0781H169.892L170.463 49.1813L170.637 51.9468H170.871L171.026 49.1813L171.485 39.0781H171.483Z" fill="#F0E1D2"/>
<path d="M180.936 55.8007L180.763 52.7586L179.293 52.7407L179.111 55.8007H175.271L177.045 39.0781H183.098L184.818 55.8007H180.936ZM179.484 49.7853H180.583L180.28 44.4014L180.159 42.405H179.925L179.803 44.4014L179.484 49.7853Z" fill="#F0E1D2"/>
<path d="M189.864 52.6719H192.605V55.8007H186.146V39.0781H189.864V52.6719Z" fill="#F0E1D2"/>
<path d="M199.759 47.4559C202.027 47.4559 204.945 44.5404 204.945 42.2729C204.945 44.5404 207.862 47.4559 210.13 47.4559C207.862 47.4559 204.945 50.3714 204.945 52.6389C204.945 50.3714 202.027 47.4559 199.759 47.4559Z" fill="#F0E1D2"/>
<path d="M54.1816 47.4559C56.4503 47.4559 59.3674 44.5404 59.3674 42.2729C59.3674 44.5404 62.2845 47.4559 64.5532 47.4559C62.2845 47.4559 59.3674 50.3714 59.3674 52.6389C59.3674 50.3714 56.4503 47.4559 54.1816 47.4559Z" fill="#F0E1D2"/>
</svg>
