<svg width="1535" height="961" viewBox="0 0 1535 961" fill="none" xmlns="http://www.w3.org/2000/svg">
<path d="M200.474 140.878C200.474 110.061 240.116 70.439 270.949 70.439C240.116 70.439 200.474 30.8171 200.474 0C200.474 30.8171 160.832 70.439 130 70.439C160.832 70.439 200.474 110.061 200.474 140.878Z" fill="#00CFFA"/>
<path d="M1389.47 480.878C1389.47 450.061 1429.12 410.439 1459.95 410.439C1429.12 410.439 1389.47 370.817 1389.47 340C1389.47 370.817 1349.83 410.439 1319 410.439C1349.83 410.439 1389.47 450.061 1389.47 480.878Z" fill="#00CFFA"/>
<path d="M454.474 922.878C454.474 892.061 494.116 852.439 524.949 852.439C494.116 852.439 454.474 812.817 454.474 782C454.474 812.817 414.832 852.439 384 852.439C414.832 852.439 454.474 892.061 454.474 922.878Z" fill="#00CFFA"/>
</svg>
