<svg width="1370" height="1462" viewBox="0 0 1370 1462" fill="none" xmlns="http://www.w3.org/2000/svg">
<g clip-path="url(#clip0_2612_4558)">
<path d="M575.03 127.89C575.03 99.91 611 63.94 638.98 63.94C611 63.94 575.03 27.97 575.03 -0.0100098C575.03 27.97 539.06 63.94 511.08 63.94C539.06 63.94 575.03 99.91 575.03 127.89Z" fill="#E682B4"/>
<path d="M1305.26 522.28C1305.26 494.3 1341.23 458.33 1369.21 458.33C1341.23 458.33 1305.26 422.36 1305.26 394.38C1305.26 422.36 1269.29 458.33 1241.31 458.33C1269.29 458.33 1305.26 494.3 1305.26 522.28Z" fill="#E682B4"/>
<path d="M63.95 1461.82C63.95 1433.84 99.92 1397.87 127.9 1397.87C99.92 1397.87 63.95 1361.9 63.95 1333.92C63.95 1361.9 27.98 1397.87 0 1397.87C27.98 1397.87 63.95 1433.84 63.95 1461.82Z" fill="#E682B4"/>
</g>
<defs>
<clipPath id="clip0_2612_4558">
<rect width="1369.2" height="1461.82" fill="white"/>
</clipPath>
</defs>
</svg>
