<svg width="1717" height="1227" viewBox="0 0 1717 1227" fill="none" xmlns="http://www.w3.org/2000/svg">
<g clip-path="url(#clip0_2612_4553)">
<path d="M1313.87 120C1313.87 93.75 1347.62 60 1373.87 60C1347.62 60 1313.87 26.25 1313.87 0C1313.87 26.25 1280.12 60 1253.87 60C1280.12 60 1313.87 93.75 1313.87 120Z" fill="#FFAC00"/>
<path d="M1656.67 892.93C1656.67 866.68 1690.42 832.93 1716.67 832.93C1690.42 832.93 1656.67 799.18 1656.67 772.93C1656.67 799.18 1622.92 832.93 1596.67 832.93C1622.92 832.93 1656.67 866.68 1656.67 892.93Z" fill="#FFAC00"/>
<path d="M60 1226.18C60 1199.93 93.75 1166.18 120 1166.18C93.75 1166.18 60 1132.43 60 1106.18C60 1132.43 26.25 1166.18 0 1166.18C26.25 1166.18 60 1199.93 60 1226.18Z" fill="#FFAC00"/>
</g>
<defs>
<clipPath id="clip0_2612_4553">
<rect width="1716.67" height="1226.18" fill="white"/>
</clipPath>
</defs>
</svg>
