<svg width="1307" height="819" viewBox="0 0 1307 819" fill="none" xmlns="http://www.w3.org/2000/svg">
<g clip-path="url(#clip0_2612_4563)">
<path d="M835.82 120C835.82 93.75 869.57 60 895.82 60C869.57 60 835.82 26.25 835.82 0C835.82 26.25 802.07 60 775.82 60C802.07 60 835.82 93.75 835.82 120Z" fill="#FF5800"/>
<path d="M1246.86 693.77C1246.86 667.52 1280.61 633.77 1306.86 633.77C1280.61 633.77 1246.86 600.02 1246.86 573.77C1246.86 600.02 1213.11 633.77 1186.86 633.77C1213.11 633.77 1246.86 667.52 1246.86 693.77Z" fill="#FF5800"/>
<path d="M60 818.58C60 792.33 93.75 758.58 120 758.58C93.75 758.58 60 724.83 60 698.58C60 724.83 26.25 758.58 0 758.58C26.25 758.58 60 792.33 60 818.58Z" fill="#FF5800"/>
</g>
<defs>
<clipPath id="clip0_2612_4563">
<rect width="1306.86" height="818.58" fill="white"/>
</clipPath>
</defs>
</svg>
